<?xml version="1.0" encoding="iso-8859-1"?>
<!-- Generator: Adobe Illustrator 18.0.0, SVG Export Plug-In . SVG Version: 6.00 Build 0)  -->
<!DOCTYPE svg PUBLIC "-//W3C//DTD SVG 1.1//EN" "http://www.w3.org/Graphics/SVG/1.1/DTD/svg11.dtd">
<svg version="1.1" id="Capa_1" xmlns="http://www.w3.org/2000/svg" xmlns:xlink="http://www.w3.org/1999/xlink" x="0px" y="0px"
	 viewBox="0 0 359.999 359.999" style="enable-background:new 0 0 359.999 359.999;" xml:space="preserve">
<path d="M340.304,17.65c-0.16-2.639-2.347-4.697-4.991-4.697h-71.762c-2.644,0-4.831,2.058-4.991,4.697l-8.154,134.201h-21.914
	V91.233c0-1.798-0.965-3.457-2.529-4.347c-1.563-0.889-3.482-0.87-5.028,0.05l-94.744,56.379V91.233
	c0-1.778-0.944-3.422-2.479-4.318c-1.535-0.896-3.431-0.91-4.979-0.035L2.541,152.497C0.971,153.384,0,155.047,0,156.85v185.196
	c0,2.761,2.238,5,5,5h350c1.379,0,2.696-0.569,3.641-1.573c0.945-1.004,1.434-2.354,1.35-3.73L340.304,17.65z M121.122,242.997
	H52.124v-41.998h68.998V242.997z M220.116,242.997h-68.997v-41.998h68.997V242.997z"/>
<g>
</g>
<g>
</g>
<g>
</g>
<g>
</g>
<g>
</g>
<g>
</g>
<g>
</g>
<g>
</g>
<g>
</g>
<g>
</g>
<g>
</g>
<g>
</g>
<g>
</g>
<g>
</g>
<g>
</g>
</svg>
