<svg height="232pt" preserveAspectRatio="xMidYMid meet" viewBox="0 0 914 232" width="914pt" xmlns="http://www.w3.org/2000/svg"><g transform="matrix(.1 0 0 -.1 0 232)"><path d="m0 1160v-1160h4570 4570v1160 1160h-4570-4570zm744 864c9-3 16-12 16-20 0-11-28-14-150-14h-150v-755-754l147-3c131-3 148-5 151-21s-10-17-167-17h-171v789c0 622 3 790 13 794 18 8 292 8 311 1zm8004-791 2-793h-170c-139 0-170 3-170 14 0 22 24 26 171 26h139l-2 752-3 753-152 3c-123 2-153 5-153 16 0 23 17 25 180 23l155-2zm-7755 188c44-17 67-51 67-98 0-36-3-43-20-43-16 0-20 7-20 31 0 45-16 67-56 78-78 22-144-15-144-80 0-48 36-79 124-109 35-11 76-32 89-44 45-41 48-137 7-189-27-35-80-50-153-45-52 4-64 9-88 36-37 41-42 112-9 112 16 0 20-7 20-30 0-51 38-80 104-80 76 0 109 28 110 94 1 60-23 83-120 117-93 33-124 66-124 130 0 61 11 84 53 109 35 22 118 27 160 11zm877-21c0-18-7-20-75-20h-75v-225c0-218-1-225-20-225s-20 7-20 225v225h-75c-68 0-75 2-75 20 0 19 7 20 170 20s170-1 170-20zm770 0c0-19-7-20-110-20h-110v-90-90h106c95 0 105-2 102-17-3-16-17-18-106-21l-102-3v-94-95h115c108 0 115-1 115-20s-7-20-135-20h-135v245 245h130c123 0 130-1 130-20zm580-205v-225h100c93 0 100-1 100-20s-7-20-120-20h-120v245c0 238 1 245 20 245s20-7 20-225zm770 0v-225h100c93 0 100-1 100-20s-7-20-120-20h-120v245c0 238 1 245 20 245s20-7 20-225zm971-10c43-126 79-236 79-242 0-7-8-13-18-13-12 0-24 20-43 73l-26 72-101 3-100 3-24-73c-16-47-31-74-41-76-11-2-17 3-17 14 0 9 35 120 78 246l77 229 29-3c28-3 30-7 107-233zm819 220c40-21 60-63 60-129 0-48-4-60-31-91-17-19-37-35-45-35-22 0-17-17 36-115 28-51 50-95 50-99 0-3-10-6-23-6-19 0-31 18-75 105l-52 105h-55-55v-105c0-98-1-105-20-105s-20 7-20 245v245h100c71 0 110-5 130-15zm760-5c0-17-7-20-40-20h-40l2-207 3-208 38-3c24-2 37-8 37-18 0-12-17-14-95-12-94 3-128 18-63 28l33 5 3 208 2 207h-34c-31 0-53 19-39 34 4 3 48 6 100 6 86 0 93-1 93-20zm560-170c0-125 4-198 12-215 16-36 57-55 117-55 42 0 56 5 83 29l33 29 3 201c3 191 4 201 23 201 18 0 19-9 19-192 0-212-6-241-63-282-39-29-149-34-197-9-63 32-70 62-70 286 0 190 1 197 20 197s20-7 20-190zm967 30c42-88 79-160 82-160 4 0 42 72 86 160 68 136 83 160 102 160h23v-246c0-228-1-245-17-242s-18 23-23 201l-5 197-79-150c-43-83-83-150-90-148-6 2-45 71-86 153l-75 150-3-202c-2-195-3-203-22-203s-20 8-20 245v245h25c23 0 33-16 102-160z"/><path d="m4845 1359c-17-46-75-224-75-231 0-4 38-8 85-8s85 1 85 3c0 6-82 242-86 246-2 2-6-2-9-10z"/><path d="m5590 1280v-100h70c74 0 123 17 134 45 3 9 6 37 6 61 0 34-6 51-25 69-22 22-32 25-105 25h-80z"/></g></svg>