<?xml version="1.0" encoding="iso-8859-1"?>
<!-- Generator: Adobe Illustrator 16.0.0, SVG Export Plug-In . SVG Version: 6.00 Build 0)  -->
<!DOCTYPE svg PUBLIC "-//W3C//DTD SVG 1.1//EN" "http://www.w3.org/Graphics/SVG/1.1/DTD/svg11.dtd">
<svg version="1.1" id="Capa_1" xmlns="http://www.w3.org/2000/svg" xmlns:xlink="http://www.w3.org/1999/xlink" x="0px" y="0px"
	 width="32px" height="32px" viewBox="0 0 477.398 477.398" style="enable-background:new 0 0 477.398 477.398;"
	 xml:space="preserve">
<g>
	<g>
		<path d="M199.448,397.915l-54.711,47.837l4.634,22.726l56.451,0.093l7.851-5.892c3.438,12.275,9.325,14.72,9.325,14.72h15.701
			H254.4c0,0,5.887-2.444,9.321-14.72l7.851,5.892l56.456-0.093l4.629-22.726l-54.705-47.837v-22.569h109.903v-23.552
			c0,0-2.981-2.653-7.851-7.005v-16.547l-4.416-9.811c0,0-3.435-38.271-3.435-52.501c0,14.23-3.435,52.501-3.435,52.501
			l-4.416,9.811v2.408c-28.885-26.137-74.361-68.018-77.03-75.022c0,0-0.481-62.314-28.457-93.714c0,0,3.442-137.87-20.109-161.914
			c-24.531,24.036-20.113,161.914-20.113,161.914c-27.962,31.4-28.457,93.714-28.457,93.714
			c-2.669,7.005-48.153,48.895-77.029,75.022v-2.408l-4.412-9.811c0,0-3.438-38.271-3.438-52.501c0,14.23-3.438,52.501-3.438,52.501
			l-4.426,9.811v16.547c-4.869,4.368-7.851,7.005-7.851,7.005v23.552h109.905V397.915z"/>
	</g>
</g>
<g>
</g>
<g>
</g>
<g>
</g>
<g>
</g>
<g>
</g>
<g>
</g>
<g>
</g>
<g>
</g>
<g>
</g>
<g>
</g>
<g>
</g>
<g>
</g>
<g>
</g>
<g>
</g>
<g>
</g>
</svg>
